<svg width="16" height="16" viewBox="0 0 16 16" fill="none" xmlns="http://www.w3.org/2000/svg">
<path fill-rule="evenodd" clip-rule="evenodd" d="M0.2268 0.2268C0.5291 -0.0756 1.0193 -0.0756 1.3216 0.2268L8 6.9051L14.6784 0.2268C14.9807 -0.0756 15.4709 -0.0756 15.7732 0.2268C16.0756 0.5291 16.0756 1.0193 15.7732 1.3216L9.0949 8L15.7732 14.6784C16.0756 14.9807 16.0756 15.4709 15.7732 15.7732C15.4709 16.0756 14.9807 16.0756 14.6784 15.7732L8 9.0949L1.3216 15.7732C1.0193 16.0756 0.5291 16.0756 0.2268 15.7732C-0.0756 15.4709 -0.0756 14.9807 0.2268 14.6784L6.9051 8L0.2268 1.3216C-0.0756 1.0193 -0.0756 0.5291 0.2268 0.2268Z" fill="#030D45"/>
</svg>
